#!OML:ASF F:\VICON\USERDATA\INSTALL\rory3\rory3.ASF
:FULLY-SPECIFIED
:DEGREES
1191
root -5.45072 16.94 -0.977665 19.8472 15.5182 0.238053
lowerback 29.5005 0.827991 -1.30368
upperback 9.75603 1.00161 2.16154
thorax -5.31074 0.492491 2.8132
lowerneck -17.3515 -2.78518 -9.95093
upperneck 24.7487 -1.45056 2.07863
head 11.0012 -1.30353 2.22161
rclavicle -2.3059e-014 2.10712e-014
rhumerus -13.382 21.7141 -80.5906
rradius 59.3859
rwrist 35.4327
rhand -21.0143 -7.08463
rfingers 7.12502
rthumb 5.36051 -36.9968
lclavicle -2.3059e-014 2.10712e-014
lhumerus -16.3188 -22.7433 92.1861
lradius 61.811
lwrist -15.658
lhand -16.9114 25.8814
lfingers 7.12502
lthumb 9.32085 55.6553
rfemur -47.4878 -3.97504 3.89562
rtibia 26.6785
rfoot -12.3659 -19.9937
rtoes 14.3122
lfemur -50.0554 1.42772 -18.3291
ltibia 46.1141
lfoot -13.1717 -12.1327
ltoes -10.7813
1192
root -5.42438 16.9642 -1.01599 18.7637 15.7674 -0.59404
lowerback 29.5023 0.907481 -1.0239
upperback 9.80398 1.18944 2.31421
thorax -5.26791 0.5818 2.75911
lowerneck -17.4861 -2.71394 -9.99557
upperneck 24.8058 -1.28654 1.95565
head 11.0388 -1.25027 2.20795
rclavicle -3.02153e-014 -1.11319e-014
rhumerus -13.0952 22.1107 -80.6193
rradius 58.1327
rwrist 34.964
rhand -21.3083 -7.08631
rfingers 7.12502
rthumb 5.07664 -37.0055
lclavicle -3.02153e-014 -1.11319e-014
lhumerus -16.1487 -23.0091 92.0449
lradius 61.0321
lwrist -15.2893
lhand -16.3745 25.5069
lfingers 7.12502
lthumb 9.83885 55.257
rfemur -46.6569 -3.36358 4.71181
rtibia 27.0541
rfoot -13.813 -20.4577
rtoes 14.4086
lfemur -49.1879 1.61074 -17.5954
ltibia 45.8768
lfoot -12.9505 -12.3092
ltoes -10.6105
1193
root -5.3853 16.9811 -1.0661 18.2978 15.9304 -0.597141
lowerback 29.2772 0.913268 -1.12468
upperback 9.6999 1.16011 2.18332
thorax -5.27762 0.570085 2.68154
lowerneck -17.3929 -2.59961 -10.0879
upperneck 24.6734 -1.09897 1.90645
head 10.9599 -1.17703 2.23125
rclavicle -3.33958e-014 2.70347e-014
rhumerus -12.8972 22.4421 -80.7514
rradius 56.9578
rwrist 34.5526
rhand -21.4023 -7.10571
rfingers 7.12502
rthumb 4.98594 -37.027
lclavicle -3.33958e-014 2.70347e-014
lhumerus -16.0364 -23.242 91.8998
lradius 60.2813
lwrist -14.8549
lhand -15.6478 25.4391
lfingers 7.12502
lthumb 10.5399 55.1548
rfemur -46.3386 -3.80415 5.10343
rtibia 27.7339
rfoot -14.5885 -20.5257
rtoes 13.9525
lfemur -48.6666 1.50571 -17.7887
ltibia 45.5617
lfoot -12.6775 -12.3829
ltoes -10.5047
1194
root -5.33696 16.9919 -1.12613 18.3587 16.0119 -0.0801008
lowerback 28.7489 0.869132 -1.54386
upperback 9.5121 0.972629 1.89952
thorax -5.23065 0.48206 2.67002
lowerneck -17.3059 -2.45163 -10.1085
upperneck 24.4597 -0.850288 1.72041
head 10.8475 -1.08362 2.20015
rclavicle 3.89618e-014 -2.8625e-014
rhumerus -12.618 22.9042 -80.851
rradius 55.7496
rwrist 34.4234
rhand -21.59 -7.07374
rfingers 7.12502
rthumb 4.80463 -36.9993
lclavicle 3.89618e-014 -2.8625e-014
lhumerus -16.0187 -23.3147 91.7299
lradius 59.6637
lwrist -14.4932
lhand -14.9695 25.0593
lfingers 7.12502
lthumb 11.1942 54.7407
rfemur -46.5543 -4.88907 5.20227
rtibia 28.7728
rfoot -14.9567 -20.3598
rtoes 13.816
lfemur -48.5196 1.30791 -18.6071
ltibia 45.1993
lfoot -12.4136 -12.4463
ltoes -10.2405
1195
root -5.29094 17 -1.18669 18.3892 16.069 0.396157
lowerback 28.2269 0.886301 -1.95341
upperback 9.37818 0.870812 1.6376
thorax -5.12845 0.433618 2.64915
lowerneck -17.3718 -2.37158 -10.028
upperneck 24.3534 -0.687195 1.46641
head 10.8104 -1.03023 2.11623
rclavicle 3.22031e-014 -1.64991e-014
rhumerus -12.2068 23.3821 -80.7662
rradius 54.5788
rwrist 34.3055
rhand -21.7601 -7.02889
rfingers 7.12502
rthumb 4.64046 -36.9581
lclavicle 3.22031e-014 -1.64991e-014
lhumerus -15.8983 -23.5699 91.6048
lradius 58.9814
lwrist -14.259
lhand -14.3191 24.567
lfingers 7.12502
lthumb 11.8214 54.2133
rfemur -46.8993 -5.98697 5.39326
rtibia 30.1318
rfoot -15.2619 -20.0793
rtoes 14.1601
lfemur -48.3737 1.11362 -19.3777
ltibia 44.8121
lfoot -12.1626 -12.4089
ltoes -10.4901
1196
root -5.24527 17.0139 -1.24514 18.4307 16.088 0.851142
lowerback 27.6194 0.964163 -2.30501
upperback 9.34257 0.866767 1.36275
thorax -4.87895 0.429878 2.55042
lowerneck -17.6982 -2.36893 -10.0619
upperneck 24.3233 -0.616212 1.39839
head 10.8587 -1.00899 2.10613
rclavicle 3.65764e-014 -3.97569e-016
rhumerus -11.6165 23.7272 -80.5514
rradius 53.4871
rwrist 34.0186
rhand -21.458 -7.02607
rfingers 7.12502
rthumb 4.93208 -36.9487
lclavicle 3.65764e-014 -3.97569e-016
lhumerus -15.442 -24.1087 91.4778
lradius 58.1968
lwrist -13.7279
lhand -14.0995 24.1704
lfingers 7.12502
lthumb 12.0331 53.8045
rfemur -47.2701 -7.20071 5.74778
rtibia 31.5924
rfoot -15.2869 -19.6516
rtoes 14.1459
lfemur -48.2164 0.871808 -20.0893
ltibia 44.4496
lfoot -11.9189 -12.3176
ltoes -10.4706
1197
root -5.20684 17.0358 -1.29902 18.1121 16.105 0.884676
lowerback 27.2003 1.07658 -2.39589
upperback 9.37517 0.980665 1.18224
thorax -4.64831 0.48331 2.37065
lowerneck -18.0081 -2.36951 -10.1999
upperneck 24.367 -0.572031 1.52741
head 10.933 -0.987708 2.18228
rclavicle -1.80894e-014 3.51849e-014
rhumerus -11.0431 24.0565 -80.3533
rradius 52.4517
rwrist 33.6757
rhand -21.2234 -7.11344
rfingers 7.12502
rthumb 5.15865 -37.0306
lclavicle -1.80894e-014 3.51849e-014
lhumerus -15.0596 -24.8247 91.3296
lradius 57.4471
lwrist -12.5612
lhand -14.9405 23.5275
lfingers 7.12502
lthumb 11.2222 53.2073
rfemur -47.3419 -8.10173 6.53088
rtibia 33.0631
rfoot -15.3233 -19.3023
rtoes 13.7371
lfemur -47.8118 0.821061 -20.3346
ltibia 44.129
lfoot -11.6854 -12.3416
ltoes -10.4623
